# xmcd
#
# Track frame offsets: 
#        150
#        15931
#        29568
#        44597
#        58876
#        70500
#        87262
#        103488
#        118927
#        132662
#        146594
#        160107
#        178434
#
# Disc length: 2591 seconds
#
# Revision: 0
# Processed by: cddbd v1.5.2PL0 Copyright (c) Steve Scherf et al.
# Submitted via: ExactAudioCopy v1.0b3
#
DISCID=c40a1d0d
DTITLE=Kiddy Contest - Kiddy Contest Vol.21
DYEAR=2015
DGENRE=Pop
TTITLE0=Kiddy Contest Kids 2015 - We Are The Kids (Karaoke)
TTITLE1=Sophia Joham - Make Up (Karaoke)
TTITLE2=Selina Gerstmayer - Ein Kleines Geheimnis (Karaoke)
TTITLE3=Paul Aschenwald - Gespenster Gibt Es Sicher Nicht (Karaoke)
TTITLE4=Emelie Missiuk - Weil Ich Klein Bin (Karaoke)
TTITLE5=Markus Manzl - Blinder Passagier (Karaoke)
TTITLE6=Uljana Schmal - Ein Dino In Der Stadt (Karaoke)
TTITLE7=Laura Eder - Fensterglas (Karaoke)
TTITLE8=Anna Hölzl - Wo Geht's Hier Nach Afrika (Karaoke)
TTITLE9=Alinah Hofstätter - Tausend Selfies (Karaoke)
TTITLE10=Simon Stabauer - Märchenhelden (Karaoke)
TTITLE11=Kiddy Contest Kids 2015 - Unsichtbare Lichter (Karaoke)
TTITLE12=Lena Tirler - Weekend (Karaoke)
EXTD=
EXTT0=
EXTT1=
EXTT2=
EXTT3=
EXTT4=
EXTT5=
EXTT6=
EXTT7=
EXTT8=
EXTT9=
EXTT10=
EXTT11=
EXTT12=
PLAYORDER=
